<svg width="360" height="273" viewBox="0 0 360 273" fill="none" xmlns="http://www.w3.org/2000/svg">
<path fill-rule="evenodd" clip-rule="evenodd" d="M170.683 144.164L150.161 226.821H154.955L175.478 144.164H170.683Z" fill="#CCE3FF"/>
<path d="M194.904 185.104L206.257 145.003" stroke="#B6D4FF" stroke-width="7"/>
<path d="M186.021 145.003L215.602 184.993" stroke="#B6D4FF" stroke-width="7"/>
<path fill-rule="evenodd" clip-rule="evenodd" d="M186.02 145.003L143.598 184.546Z" fill="white"/>
<path d="M186.02 145.003L143.598 184.546" stroke="#B6D4FF" stroke-width="7"/>
<path fill-rule="evenodd" clip-rule="evenodd" d="M203.755 144.114L223.982 226.821H228.708L208.481 144.114H203.755Z" fill="#CCE3FF"/>
<path d="M152.88 145.003L194.904 184.546" stroke="#B6D4FF" stroke-width="7"/>
<path fill-rule="evenodd" clip-rule="evenodd" d="M150.439 144.164L129.917 226.821H134.711L155.234 144.164H150.439Z" fill="#DCEEFF"/>
<path fill-rule="evenodd" clip-rule="evenodd" d="M183.544 144.164L204.066 226.821H208.861L188.339 144.164H183.544Z" fill="#DCEEFF"/>
<path fill-rule="evenodd" clip-rule="evenodd" d="M231.751 134.952V135.585C231.751 140.866 227.473 145.144 222.201 145.144H147.393C135.854 145.144 126.974 134.541 128.567 122.66L137.012 56.461C137.743 50.9782 142.25 46.8984 147.576 46.8984H169.747C175.069 46.8984 179.576 50.9782 180.311 56.461L188.757 122.66C188.822 123.133 188.867 123.605 188.894 124.074L188.94 124.066C188.94 124.066 190.502 134.952 205.024 134.952H231.751Z" fill="#DCEEFF"/>
</svg>
