<svg width="280" height="269" viewBox="0 0 280 269" fill="none" xmlns="http://www.w3.org/2000/svg">
<rect width="280" height="269" rx="31" fill="#5FDEC4"/>
<path fill-rule="evenodd" clip-rule="evenodd" d="M132.257 103.368C129.148 105.286 126.016 106.371 124.481 106.2C120.632 105.772 119.209 94.5531 121.704 89.8349C124.199 85.1166 139.023 81.7319 140.62 90.4479C141.175 93.4729 139.864 96.3472 137.755 98.7931L143.431 114.206L131.339 115.376L132.257 103.368Z" fill="#E7BC94"/>
<path fill-rule="evenodd" clip-rule="evenodd" d="M130.597 92.3967C129.43 91.2283 128.333 90.3571 126.973 89.9211C121.664 90.5035 120.967 89.7869 120.717 87.1686C121.527 86.5847 124.476 85.4485 127.846 84.8833C129.538 84.3122 131.596 84.1899 133.635 84.6724C136.127 85.0005 138.308 86.0154 139.437 88.2008C143.181 92.523 141.139 97.5964 137.922 99.5731C136.941 98.7925 136.077 98.0275 135.3 97.2904C135.819 96.7886 136.108 96.1304 136.042 95.4395C135.912 94.0786 134.453 93.1062 132.783 93.2676C132.661 93.2795 132.54 93.2971 132.422 93.3202C132.51 95.029 132.752 100.816 132.131 102.894C131.399 105.344 125.868 106.463 123.919 106.651C122.236 106.814 122.169 105.509 122.121 104.574C122.114 104.44 122.108 104.313 122.097 104.199C122.074 103.961 122.454 103.925 122.883 103.884C123.439 103.831 124.079 103.77 124.03 103.25C123.975 102.682 122.971 102.34 122.073 102.033C121.512 101.842 120.993 101.665 120.771 101.456C120.07 100.796 119.765 99.8448 120.717 99.7527C121.238 99.7023 121.976 99.878 122.864 100.089C124.205 100.408 125.887 100.809 127.679 100.636C130.639 100.349 130.598 92.4947 130.597 92.3967Z" fill="#191847"/>
<path d="M124.44 96.3584C124.825 96.0677 124.938 95.3509 124.974 94.9141C124.989 94.6052 124.693 94.3327 124.29 94.3129C124.021 94.2997 123.773 94.365 123.586 94.6912C123.12 95.4939 123.867 96.7689 124.44 96.3584Z" fill="#482D1F"/>
<path d="M120.462 96.5151L120.469 96.4891L120.464 96.5019L120.462 96.5151ZM119.721 98.4728C119.632 98.6812 119.902 98.9127 120.282 98.9775C120.365 98.9883 120.365 98.9883 120.419 98.9947C120.985 99.0621 121.339 99.0981 121.949 99.1441C122.136 99.1582 122.297 99.0849 122.309 98.9806C122.321 98.8762 122.181 98.7802 121.995 98.7662C121.404 98.7216 121.066 98.6873 120.516 98.6218L120.408 98.6089C120.407 98.608 120.379 98.5839 120.38 98.5804L121.13 96.5919L121.136 96.5659L121.269 95.451C121.282 95.3467 121.141 95.2507 120.955 95.2367C120.769 95.2226 120.608 95.2958 120.596 95.4002L120.464 96.5019L119.721 98.4728Z" fill="#482D1F"/>
<path fill-rule="evenodd" clip-rule="evenodd" d="M116.37 148.81C116.37 148.81 119.148 149.152 119.677 150.368C121.19 153.846 118.056 160.064 118.056 160.064C118.056 160.064 119.384 159.272 119.648 159.965C119.765 160.273 120.032 162.737 115.057 162.903C114.529 162.92 113.258 161.869 113.258 161.869C113.258 161.869 114.185 163.599 112.766 163.939C112.766 163.939 110.48 160.589 110.445 159.844C110.41 159.099 111.144 155.325 111.54 154.563C111.937 153.801 116.37 148.81 116.37 148.81ZM154.881 153.103L155.783 151.371L160.866 150.799C161.233 151.369 161.925 152.707 162.243 153.592C162.858 155.307 162.925 156.027 163.029 157.139C163.055 157.419 163.083 157.724 163.123 158.076C163.288 159.524 163.299 160.98 162.74 162.917C162.38 164.162 161.996 165.221 161.796 165.177C161.292 165.064 161.273 164.429 161.273 164.429L161.51 163.251L161.618 162.1C161.618 162.1 159.828 167.196 159.676 167.168C159.14 167.069 159.055 166.175 159.055 166.175C159.055 166.175 158.494 167.934 158.212 167.871C157.494 167.708 157.562 166.894 157.562 166.894C157.562 166.894 157.335 167.088 157.161 167.039C156.511 166.855 156.53 165.725 156.542 165.063C156.543 165.01 156.544 164.96 156.544 164.914C156.544 164.914 156.832 162.83 156.773 162.188C156.473 158.916 155.957 158.138 155.674 157.711C155.647 157.671 155.622 157.634 155.6 157.598C155.156 157.894 154.991 158.402 154.816 158.942C154.689 159.334 154.557 159.743 154.307 160.099C153.549 161.182 151.433 162.206 152.616 159.724C153.273 158.345 153.436 157.497 153.588 156.71C153.677 156.248 153.762 155.807 153.94 155.293C154.421 153.901 154.881 153.103 154.881 153.103Z" fill="#E7BC94"/>
<path opacity="0.147531" d="M117.04 153.304C117.04 153.304 116.342 155.883 113.946 156.687C113.108 156.968 113.318 160.284 111.264 159.888" stroke="black" stroke-width="3"/>
<path fill-rule="evenodd" clip-rule="evenodd" d="M143.568 109.396L142.387 105.29L136.488 105.659L134.444 109.034L132.4 105.914L130.93 106.006L130.435 109.916C130.17 110.025 129.918 110.134 129.676 110.244C129.342 110.395 129.028 110.545 128.733 110.696L128.717 110.704C125.016 112.592 124.128 114.516 123.057 116.835L123.057 116.835C122.92 117.132 122.78 117.435 122.63 117.746C120.943 121.247 119.196 132.001 119.196 132.001L111.875 150.565L120.85 155.588L123.057 151.29L123.002 145.553H136.1L137.552 145.551H150.43L150.622 138.487L152.959 152.657L163.218 153.145C163.218 153.145 163.42 138.387 161.467 129.85C160.223 124.412 154.147 114.307 148.393 110.833C147.473 110.277 146.252 109.887 144.889 109.617C144.46 109.532 144.018 109.458 143.568 109.396ZM135.856 147.021C135.856 147.491 136.235 147.872 136.702 147.872C137.169 147.872 137.548 147.491 137.548 147.021C137.548 146.551 137.169 146.17 136.702 146.17C136.235 146.17 135.856 146.551 135.856 147.021ZM127.395 147.919C126.928 147.919 126.549 147.538 126.549 147.068C126.549 146.598 126.928 146.217 127.395 146.217C127.862 146.217 128.241 146.598 128.241 147.068C128.241 147.538 127.862 147.919 127.395 147.919Z" fill="#1E9DBC"/>
<path opacity="0.197266" d="M150.578 140.083L148.689 130.169L144.02 122.213" stroke="black" stroke-width="5"/>
<path opacity="0.195754" d="M123.415 145.594L122.523 131.149" stroke="black" stroke-width="5"/>
<path fill-rule="evenodd" clip-rule="evenodd" d="M137.797 106.493L139.394 111.637L135.107 109.719L137.797 106.493ZM131.427 106.906L133.999 109.669L130.557 111.701L131.427 106.906Z" fill="#EA847A"/>
<path opacity="0.198451" fill-rule="evenodd" clip-rule="evenodd" d="M154.006 150.997C154.006 151.455 154.375 151.827 154.831 151.827C155.286 151.827 155.656 151.455 155.656 150.997C155.656 150.539 155.286 150.168 154.831 150.168C154.375 150.168 154.006 150.539 154.006 150.997" fill="black"/>
<path opacity="0.199033" fill-rule="evenodd" clip-rule="evenodd" d="M113.327 149.912C113.327 150.371 113.696 150.742 114.152 150.742C114.608 150.742 114.977 150.371 114.977 149.912C114.977 149.454 114.608 149.083 114.152 149.083C113.696 149.083 113.327 149.454 113.327 149.912" fill="black"/>
<path opacity="0.202567" d="M163.223 148.668L152.265 148.179" stroke="black" stroke-width="4"/>
<path opacity="0.198684" d="M123.002 151.486L113.568 146.269" stroke="black" stroke-width="4"/>
<path opacity="0.197661" fill-rule="evenodd" clip-rule="evenodd" d="M136.1 145.553L137.552 145.551C137.637 127.865 140.518 116.066 144.888 109.617V109.615L143.416 109.271C143.393 109.302 143.37 109.333 143.35 109.366C138.886 115.672 135.933 127.411 136.1 145.553" fill="black"/>
<path opacity="0.196777" fill-rule="evenodd" clip-rule="evenodd" d="M126.312 145.554H127.791C125.716 128.542 127.027 116.771 130.439 109.914C130.445 109.898 130.453 109.883 130.461 109.866L129.676 110.244L128.733 110.696L128.717 110.704C125.153 117.389 123.95 128.171 126.312 145.554" fill="black"/>
<path fill-rule="evenodd" clip-rule="evenodd" d="M128.904 230.088L128.855 225.872L134.261 223.134L135.045 235.186H116.317C119.504 231.577 128.904 230.088 128.904 230.088ZM152.375 230.252L152.326 225.517L157.838 225.254L158.34 229.991L159.622 235.186H146.804C148.416 230.772 152.375 230.252 152.375 230.252Z" fill="#AFB9C5"/>
<path fill-rule="evenodd" clip-rule="evenodd" d="M152.326 225.517L157.731 223.884L158.34 229.99L152.374 230.252L152.326 225.517ZM128.855 225.872L134.261 224.239L134.696 229.826L128.904 230.088L128.855 225.872Z" fill="#E7BC94"/>
<path d="M137.326 165.256L150.011 228.306H159.737L148.104 144.994H125.095L125.895 227.984L128.88 228.027L134.563 228.112H134.584L136.033 228.132L137.326 165.256Z" fill="#2F2F3D"/>
<path opacity="0.200893" fill-rule="evenodd" clip-rule="evenodd" d="M137.292 164.789L135.104 155.035L136.75 184.607L137.292 164.789Z" fill="black"/>
<path fill-rule="evenodd" clip-rule="evenodd" d="M184.651 109.838C181.936 111.777 179.166 112.89 177.78 112.741C174.302 112.368 172.556 101.288 174.602 96.5887C176.647 91.8891 189.829 88.3494 191.628 96.9508C192.252 99.9356 191.194 102.795 189.401 105.242L195.144 120.416L184.326 121.729L184.651 109.838Z" fill="#915B3C"/>
<path fill-rule="evenodd" clip-rule="evenodd" d="M195.972 93.4873C196.281 93.1332 196.414 92.6652 196.524 92.2227C196.639 91.7631 196.748 91.2996 196.803 90.829C196.912 89.8888 196.778 88.839 195.964 88.2181C195.31 87.7202 194.407 87.5709 193.596 87.613C193.056 87.641 192.515 87.7751 192.022 87.9892C191.532 88.2015 191.133 88.5549 190.663 88.8011C190.517 87.8199 190.197 86.8135 189.534 86.041C188.897 85.2977 187.988 84.9475 187.004 84.945C185.994 84.9426 185.039 85.271 184.205 85.8122C183.996 85.9477 183.79 86.0882 183.596 86.2424C183.433 86.3716 183.266 86.5237 183.064 86.5926C182.839 86.6696 182.709 86.5633 182.539 86.4296C182.339 86.2728 182.12 86.14 181.892 86.0264C180.883 85.5243 179.631 85.4194 178.602 85.9186C178.128 86.1486 177.683 86.4956 177.398 86.9338C177.144 87.3245 177.002 87.9124 176.62 88.2095C176.458 88.3356 176.316 88.2118 176.143 88.1286C175.882 88.0036 175.631 87.8613 175.369 87.7409C175 87.5717 174.61 87.459 174.203 87.4245C173.607 87.3741 172.81 87.4997 172.732 88.2034C172.703 88.4677 172.786 88.7366 172.84 88.9929C172.913 89.3448 172.988 89.6964 173.068 90.047C173.129 90.3132 173.196 90.5694 173.286 90.827C173.335 90.9643 173.463 91.2157 173.414 91.3651C173.353 91.5518 172.952 91.4984 172.788 91.5246C172.462 91.5765 172.141 91.6679 171.855 91.8303C171.633 91.9562 171.405 92.1294 171.338 92.3831C171.296 92.5389 171.332 92.6895 171.38 92.8387C171.438 93.0179 171.412 93.1199 171.41 93.3079C170.945 93.1666 169.368 92.9188 169.268 93.6503C169.235 93.8939 169.415 94.1428 169.551 94.3282C169.79 94.6535 170.086 94.9414 170.386 95.2139C171.011 95.7824 171.73 96.2508 172.487 96.6341C171.713 97.0603 171.624 98.0507 172.406 98.5395C172.751 98.7553 173.178 98.7609 173.57 98.6968C173.713 98.6734 173.915 98.5982 174.031 98.6071C174.094 98.6118 174.165 98.6505 174.251 98.6454C174.811 98.6122 175.423 98.4155 175.952 98.2384C176.896 97.923 177.759 97.3986 178.427 96.6786C178.598 96.494 178.745 96.3818 179.004 96.3528C179.23 96.3274 179.46 96.3563 179.687 96.334C180.288 96.2751 180.794 95.946 181.327 95.7031C181.449 96.3753 181.759 97.0942 182.145 97.6654C182.459 98.1312 182.992 98.1398 183.512 98.1209C185.175 98.0606 186.805 97.7049 188.452 97.5072C186.9 98.0249 185.27 98.3585 183.739 98.9318C183.047 99.191 183.649 99.5581 183.993 99.8214C184.56 100.255 185.013 100.822 185.355 101.437C186.017 100.427 187.317 99.6568 188.575 99.7898C189.964 99.9366 191.126 101.464 190.416 102.749C190.004 103.495 189.134 103.87 188.419 104.256C189.077 104.734 189.324 105.528 189.766 106.169C189.984 106.485 190.277 106.836 190.682 106.907C190.832 106.933 191.002 106.916 191.129 107.008C191.287 107.122 191.34 107.264 191.534 107.355C192.31 107.717 193.428 107.547 193.989 106.883C194.496 106.282 194.237 105.461 193.687 104.982C194.415 104.602 195.762 104.063 195.319 103.027C196.965 102.727 200.678 99.817 198.224 98.318C199.365 97.5484 200.291 95.8935 199.334 94.65C198.596 93.6924 197.132 93.4021 195.972 93.4873Z" fill="#191847"/>
<path fill-rule="evenodd" clip-rule="evenodd" d="M192.457 156.897L174.8 200.101L162.957 236.626L158.28 236.626L176.385 156.897L192.457 156.897Z" fill="#997659"/>
<path fill-rule="evenodd" clip-rule="evenodd" d="M196.013 156.897C196.201 172.079 198.943 192.519 199.381 193.466C199.819 194.412 229.628 217.535 229.628 217.535L226.407 220.867C226.407 220.867 191.235 201.042 189.607 198.398C187.98 195.754 182.681 171.422 178.427 156.897L196.013 156.897Z" fill="#B28B67"/>
<path fill-rule="evenodd" clip-rule="evenodd" d="M228.626 218.226C229.116 217.17 230.299 216.462 231.376 216.953C231.746 217.122 232.081 217.302 232.294 217.474C233.04 218.079 234.262 219.479 234.262 219.479C233.536 220.315 221.219 234.505 221.219 234.505C221.219 234.505 218.707 233.466 219.643 232.075C220.579 230.683 221.175 229.744 221.175 229.744L223.828 220.782C223.987 220.247 224.57 219.943 225.117 220.11L225.987 220.377C225.987 220.377 227.565 219.666 228.198 218.936C228.352 218.759 228.496 218.507 228.626 218.226Z" fill="#E4E4E4"/>
<path fill-rule="evenodd" clip-rule="evenodd" d="M162.609 235.013C163.716 234.693 164.984 235.119 165.29 236.228C165.399 236.621 165.475 236.995 165.475 237.271C165.475 238.212 165.151 240.016 165.151 240.016C164.022 240.016 144.86 240.016 144.86 240.016C144.86 240.016 144.069 237.489 145.773 237.287C147.477 237.085 148.604 236.923 148.604 236.923L157.45 233.111C157.959 232.892 158.55 233.127 158.767 233.637L159.121 234.465C159.121 234.465 160.698 235.177 161.684 235.177C161.945 235.177 162.271 235.11 162.609 235.013Z" fill="#E4E4E4"/>
<path fill-rule="evenodd" clip-rule="evenodd" d="M180.585 232.864L158.351 230.531L174.829 156.897L194.744 156.897L180.585 232.864Z" fill="#69A1AC"/>
<path fill-rule="evenodd" clip-rule="evenodd" d="M225.029 212.159L210.445 228.848C210.445 228.848 187.403 204.519 183.577 197.099C179.752 189.679 176.7 156.897 176.7 156.897L199.12 156.897C199.12 156.897 200.788 185.737 201.368 187.079C201.948 188.421 225.029 212.159 225.029 212.159Z" fill="#89C5CC"/>
<path fill-rule="evenodd" clip-rule="evenodd" d="M227.218 166.382C225.752 164.409 216.957 143.17 216.957 143.17L210.333 144.37C210.333 144.37 221.78 166.845 222.596 168.136C223.656 169.814 222.857 172.664 222.316 174.597C222.232 174.896 222.154 175.173 222.091 175.42C223.369 175.732 223.828 175.001 224.311 174.23C224.858 173.359 225.436 172.437 227.262 172.912C227.968 173.095 228.648 173.339 229.312 173.578C231.607 174.401 233.715 175.158 236.043 173.117C236.412 172.793 236.699 171.769 235.475 171.225C232.427 169.869 227.935 167.347 227.218 166.382ZM150.57 155.585L162.596 146.878L165.225 153.321L153.33 158.207C149.957 162.102 148.072 163.727 147.677 163.082C147.344 162.539 147.607 162.028 147.85 161.558C148.04 161.192 148.216 160.85 148.088 160.536C147.796 159.819 145.539 159.902 143.4 160.07C141.261 160.239 141.887 159.3 142.404 158.836C144.592 157.543 147.313 156.46 150.57 155.585Z" fill="#B28B67"/>
<path fill-rule="evenodd" clip-rule="evenodd" d="M184.351 116.136L188.372 117.747C188.327 118.78 188.328 120.249 188.328 121.932C188.329 127.215 188.331 134.605 186.935 137.231C182.098 146.33 172.202 151.087 161.181 156.386C159.703 157.096 158.206 157.816 156.698 158.558L153.685 152.492C154.041 152.243 154.395 151.993 154.745 151.742C154.268 151.579 153.87 151.21 153.698 150.703C153.401 149.833 153.879 148.888 154.766 148.593C156.57 147.993 158.252 147.738 159.797 147.844C171.094 138.483 178.713 127.538 184.351 116.136Z" fill="#3E369E"/>
<path fill-rule="evenodd" clip-rule="evenodd" d="M202.422 157.453C202.422 157.453 184.669 159.405 174.482 157.511C173.641 157.355 173.686 153.79 174.078 152.816C180.192 137.644 184.216 126.538 184.239 116.009C185.911 116.864 190.095 116.254 190.095 116.254C197.565 127.089 200.982 139.532 202.422 157.453Z" fill="#191847"/>
<path fill-rule="evenodd" clip-rule="evenodd" d="M221.19 198.851C212.028 195.272 202.707 196.48 194.31 197.567C188.492 198.321 183.118 199.017 178.548 198.023C174.872 179.251 180.078 158.485 184.342 141.473L184.342 141.473C187.009 130.836 189.308 121.667 188.837 115.37L192.532 115.362L193.118 115.361C193.118 115.361 214.539 128.248 224.931 157.589C225.75 157.735 226.526 157.993 227.257 158.364C227.949 158.715 226.975 160.832 226.151 161.28C226.445 162.238 226.728 163.213 226.998 164.205L219.885 166.274C214.766 152.955 208.682 145.277 203.651 140.877C203.616 142.357 203.454 143.847 203.292 145.347C202.995 148.078 202.696 150.84 203.149 153.634C203.238 154.181 203.345 154.732 203.471 155.286C204.193 155.372 204.806 155.919 204.939 156.67L205.124 157.713C205.227 158.295 205.017 158.86 204.615 159.237C206.355 164.244 209.158 169.479 211.968 174.73C216.401 183.011 220.854 191.329 221.19 198.851Z" fill="#665BEB"/>
<path fill-rule="evenodd" clip-rule="evenodd" d="M191.562 115.734L193.49 121.595L189.57 126L193.096 129.448L184.514 143.845L195.002 129.473L191.539 125.996L195.018 122.103L191.562 115.734Z" fill="black" fill-opacity="0.1"/>
<path fill-rule="evenodd" clip-rule="evenodd" d="M187.009 149.385C186.178 149.387 185.505 148.726 185.507 147.909C185.509 147.093 186.185 146.429 187.016 146.428C187.847 146.426 188.52 147.086 188.518 147.903C188.516 148.72 187.841 149.383 187.009 149.385ZM185.108 157.892C184.277 157.894 183.604 157.233 183.606 156.416C183.608 155.6 184.284 154.936 185.115 154.934C185.946 154.933 186.619 155.593 186.617 156.41C186.615 157.227 185.94 157.89 185.108 157.892ZM183.211 164.92C183.209 165.736 183.881 166.397 184.713 166.395C185.544 166.394 186.22 165.73 186.221 164.913C186.223 164.097 185.551 163.436 184.719 163.438C183.888 163.44 183.212 164.103 183.211 164.92Z" fill="black" fill-opacity="0.4"/>
<path d="M178.5 102.205C178.886 102.223 179.189 102.522 179.199 102.866C179.232 103.353 179.213 104.153 178.901 104.482C178.419 104.947 177.541 103.564 177.889 102.664C178.01 102.298 178.242 102.194 178.5 102.205Z" fill="#482D1F"/>
<path d="M177.373 107.961C177.268 108.273 176.717 108.409 176.49 108.463C176.133 108.543 175.095 108.815 174.784 108.353C174.627 108.18 174.416 107.606 174.416 107.606C174.416 107.606 175.252 107.703 176.283 107.689C176.864 107.668 177.254 107.559 177.378 107.761C177.409 107.818 177.374 107.904 177.373 107.961Z" fill="#482D1F"/>
<path d="M174.461 105.964C174.391 106.288 174.665 106.608 175.031 106.667C175.072 106.673 175.109 106.678 175.146 106.683C175.373 106.713 175.585 106.728 175.979 106.747L176.274 106.761C176.402 106.767 176.506 106.772 176.615 106.778C176.792 106.787 176.946 106.667 176.957 106.51C176.969 106.352 176.835 106.217 176.657 106.208C176.547 106.202 176.442 106.197 176.313 106.191L176.019 106.177C175.643 106.159 175.447 106.145 175.244 106.118C175.212 106.114 175.179 106.11 175.147 106.105C175.122 106.101 175.094 106.067 175.095 106.062L175.689 103.01L175.693 102.973L175.768 101.289C175.775 101.132 175.636 101 175.458 100.995C175.28 100.99 175.131 101.113 175.124 101.271L175.05 102.936L174.461 105.964Z" fill="#482D1F"/>
<path fill-rule="evenodd" clip-rule="evenodd" d="M143.66 244.971H119.626C118.706 244.971 117.953 244.141 117.953 243.127C117.953 242.112 118.706 241.283 119.626 241.283H143.66C144.581 241.283 145.334 242.112 145.334 243.127C145.334 244.141 144.581 244.971 143.66 244.971Z" fill="#C5CFD6"/>
<path fill-rule="evenodd" clip-rule="evenodd" d="M129.269 243.373H132.526V158.67H129.269V243.373Z" fill="#C5CFD6"/>
<path fill-rule="evenodd" clip-rule="evenodd" d="M99.144 153.198C99.144 154.589 100.272 155.717 101.663 155.717H156.664C158.055 155.717 159.183 154.589 159.183 153.198C159.183 151.807 158.055 150.679 156.664 150.679H101.663C100.272 150.679 99.144 151.807 99.144 153.198Z" fill="#DADFE3"/>
<path fill-rule="evenodd" clip-rule="evenodd" d="M145.945 155.717L129.498 163.068L113.051 155.717H145.945Z" fill="#C5CFD6"/>
<path fill-rule="evenodd" clip-rule="evenodd" d="M83.2399 92.9921C78.184 93.6097 74.6049 98.2065 75.2456 103.259L76.159 110.463C76.7402 115.046 80.5935 118.431 85.0777 118.559C85.0845 118.597 85.0914 118.634 85.0984 118.671L96.8975 117.23C98.6605 115.065 94.7415 102.319 92.7803 98.1759C92.4099 97.3934 92.0896 96.9154 91.8028 96.6688C89.879 94.0843 86.6596 92.5744 83.2399 92.9921Z" fill="#F5E27D"/>
<path fill-rule="evenodd" clip-rule="evenodd" d="M85.8548 112.195C88.6867 113.428 91.3707 113.863 92.547 113.408C95.4966 112.267 94.3924 101.315 91.489 97.2992C88.5855 93.2832 76.2271 92.8877 76.6974 101.49C76.8607 104.475 78.4645 106.962 80.6126 108.888L79.1968 124.644L88.9615 123.451L85.8548 112.195Z" fill="#EFB27A"/>
<path fill-rule="evenodd" clip-rule="evenodd" d="M75.4117 101.697C75.6604 101.388 75.901 101.089 76.143 100.818L76.0906 100.51C76.0906 100.51 78.3762 93.9908 83.0877 93.4154C87.7949 92.8404 89.5554 94.8018 91.0519 96.4691L91.0559 96.4736C90.6761 98.7788 88.7953 99.9224 86.6682 101.216C85.7526 101.772 84.7913 102.357 83.8844 103.074C83.4608 102.815 82.9468 102.691 82.4123 102.756C81.1764 102.907 80.299 104.011 80.4524 105.221C80.6059 106.432 81.7322 107.29 82.9681 107.14C83.0022 107.135 83.036 107.13 83.0695 107.125C84.1195 111.803 84.6247 117.23 83.4466 118.677L71.6475 120.118C70.5779 114.396 71.8918 112.566 73.2344 110.696C74.4976 108.936 75.7863 107.141 75.1389 102.035C75.2312 101.922 75.3219 101.809 75.4117 101.697Z" fill="#F5E27D"/>
<path d="M92.3696 104.036C92.4973 104.256 92.7162 104.649 92.9433 104.731C93.3113 104.862 93.3497 103.975 92.9584 103.625C92.7901 103.487 92.6404 103.479 92.5317 103.551C92.3459 103.657 92.2784 103.864 92.3696 104.036ZM89.2748 105.761C89.4025 105.981 89.6214 106.373 89.8485 106.455C90.2165 106.587 90.2549 105.699 89.8636 105.35C89.6953 105.211 89.5456 105.203 89.4368 105.276C89.2511 105.382 89.1836 105.589 89.2748 105.761Z" fill="#482D1F"/>
<path d="M90.9549 106.331L91.9881 107.437C92.1015 107.583 92.0812 107.804 91.9212 107.911C91.8325 107.98 91.7722 108.02 91.5271 108.178C91.4175 108.248 91.3428 108.297 91.2553 108.355C91.1803 108.405 91.0786 108.393 91.0282 108.327C90.9777 108.261 90.9977 108.167 91.0728 108.117C91.1623 108.058 91.2385 108.008 91.3497 107.936C91.5847 107.785 91.6412 107.748 91.7285 107.68C91.7336 107.676 91.7366 107.643 91.7251 107.628L90.7006 106.533C90.6437 106.472 90.6544 106.378 90.7247 106.322C90.7949 106.266 90.898 106.27 90.9549 106.331Z" fill="#482D1F"/>
<path d="M91.8016 110.117C91.6213 110.164 91.1437 110.226 90.9172 110.012C90.8801 109.964 90.804 109.905 90.8059 109.867C90.7949 109.691 91.135 109.611 91.5587 109.437C92.3059 109.122 92.858 108.753 92.858 108.753C92.858 108.753 92.9895 109.287 92.9801 109.476C92.9574 109.93 92.0803 110.077 91.8016 110.117Z" fill="#482D1F"/>
<path d="M86.1139 106.67C86.1103 106.671 86.1066 106.673 86.103 106.674L85.6441 106.859C85.5174 106.91 85.4539 107.043 85.5023 107.156C85.5507 107.269 85.6926 107.319 85.8193 107.268L86.2365 107.1C86.2987 107.248 86.381 107.391 86.4841 107.525C87.1987 108.456 88.6419 108.634 89.7076 107.923C90.6394 107.301 90.9742 106.205 90.5659 105.317L91.0214 105.052C91.7533 105.922 93.1504 106.074 94.1888 105.38C95.2545 104.669 95.5394 103.338 94.8247 102.406C94.1101 101.475 92.6669 101.297 91.6012 102.008C90.6469 102.646 90.3187 103.78 90.7739 104.679L90.3328 104.935C89.6145 104.016 88.1803 103.843 87.12 104.551C86.3531 105.063 85.9905 105.896 86.1139 106.67ZM91.276 104.568C90.8405 103.846 91.0873 102.891 91.8751 102.365C92.7158 101.804 93.8538 101.945 94.4171 102.679C94.9803 103.412 94.7556 104.462 93.9149 105.024C93.0742 105.585 91.9362 105.444 91.373 104.71C91.3649 104.7 91.3569 104.689 91.3491 104.678C91.3437 104.658 91.335 104.638 91.3226 104.619C91.3098 104.599 91.294 104.582 91.276 104.568ZM89.4337 107.566C88.593 108.127 87.455 107.987 86.8918 107.253C86.3286 106.519 86.5532 105.469 87.3939 104.908C88.2346 104.347 89.3726 104.487 89.9358 105.221C90.499 105.955 90.2744 107.005 89.4337 107.566Z" fill="#482D1F"/>
<path fill-rule="evenodd" clip-rule="evenodd" d="M99.6343 229.381L100.105 226.062L95.9717 224.511L95.5432 234.017L111.679 233.995C108.388 231.236 99.6343 229.381 99.6343 229.381ZM75.6109 225.156L71.0378 225.236L71.084 229.461C71.084 229.461 66.6718 230.079 65.1431 234.018H76.6143L76.1172 229.272L75.6109 225.156Z" fill="#0D0B6D"/>
<path fill-rule="evenodd" clip-rule="evenodd" d="M76.1072 225.39L71.6463 224.123L71.0488 229.272L76.082 229.461L76.1072 225.39ZM100.212 226.626L95.8766 225.233L95.7434 229.25L100.175 229.381L100.212 226.626Z" fill="#E576C6"/>
<path d="M70.0551 226.079C70.2596 220.93 71.5802 188.408 72.9372 169.059C73.8775 155.648 80.9145 148.265 82.2352 146.989H99.0022C99.0328 147.16 101.29 160.073 101.703 187.091C102.073 211.287 101.691 224.513 101.643 226.068L101.643 226.069L102.179 226.068L102.182 228.151L93.5 228.163L93.4965 226.08L93.7959 226.079L93.7959 226.079L89.3869 183.737L88.0663 171.064L78.042 226.068L78.0419 226.069L78.4755 226.068L78.3241 228.151L69.335 228.163L69.4863 226.08L70.0551 226.079L70.0551 226.079Z" fill="#2F2F3D"/>
<path opacity="0.398065" fill-rule="evenodd" clip-rule="evenodd" d="M88.0664 171.065L89.8704 158.668L89.3865 183.737L88.0664 171.065Z" fill="#0A0A0F"/>
<path fill-rule="evenodd" clip-rule="evenodd" d="M88.3268 119.229C87.9444 118.966 87.7005 118.834 87.7005 118.834L80.0423 119.301C80.0423 119.301 80.8856 120.901 81.8189 122.943C83.6638 126.98 86.9924 127.56 89.7971 127.241C92.4163 126.943 93.0212 124.393 90.9876 121.744C90.0484 120.521 88.9835 119.681 88.3268 119.229ZM69.4635 165.128L71.1081 169.574C71.1081 169.574 71.3149 170.604 71.4001 171.817L71.4114 171.978C71.489 173.098 71.541 173.849 72.2844 175.608C72.8271 176.892 70.8974 176.445 70.3782 175.72C70.1865 175.452 70.0445 174.897 69.8969 174.32C69.6322 173.285 69.3495 172.18 68.7297 172.537C67.7647 173.094 67.3416 176.084 67.4186 178.925C67.4305 179.371 67.0796 179.722 66.835 179.841C66.4384 180.035 65.9557 178.262 65.9557 178.262C65.9557 178.262 65.7236 178.871 65.1193 178.591C64.9056 178.492 64.3113 177.276 64.3113 177.276C64.3113 177.276 63.8355 176.67 63.6015 176.005C63.1886 174.829 62.9077 172.664 63.0275 172.035C63.2999 170.605 63.8648 168.228 64.5279 166.833C64.0725 163.207 62.3507 148.949 63.074 146.201C63.9041 143.048 65.5716 138.757 65.5716 138.757L72.4038 142.228L69.6335 148.044L69.4635 165.128ZM97.9317 148.666C97.1197 145.388 97.0005 141.05 97.0005 141.05L102.054 137.258L104.348 145.021L111.954 161.695C113.2 162.844 114.767 164.318 115.009 164.677C115.418 165.287 116.408 168.419 116.452 169.054C116.496 169.69 114.904 172.748 114.904 172.748C113.676 172.593 114.285 171.038 114.285 171.038C114.285 171.038 113.32 172.05 112.873 172.085C108.671 172.414 108.652 170.298 108.72 170.026C108.874 169.413 110.07 169.96 110.07 169.96C110.07 169.96 107.371 165.827 107.593 162.752C105.481 160.097 98.58 151.283 97.9317 148.666Z" fill="#EFB27A"/>
<path opacity="0.146833" d="M110.257 164.128C110.257 164.128 111.099 166.25 113.194 166.706C113.927 166.865 114.079 169.699 115.768 169.169" stroke="black" stroke-width="3"/>
<path fill-rule="evenodd" clip-rule="evenodd" d="M81.819 122.943C80.9529 121.048 80.1643 119.533 80.0552 119.325C77.8819 119.56 75.632 120.154 73.3733 121.975C70.3094 124.445 66.1157 131.596 63.3032 138.391L74.9047 143.488L76.347 140.674C76.347 140.674 78.3792 142.803 79.2305 145.866C79.8826 148.208 79.9206 150.167 79.9206 150.167L97.3209 148.215L98.0348 141.575L104.375 138.479C103.224 132.757 99.3519 123.405 95.3286 120.454C93.2153 118.904 91.1076 118.725 87.7738 118.876C88.1255 119.08 89.6788 120.039 90.9877 121.744C93.0212 124.393 92.4164 126.943 89.7971 127.241C86.9924 127.56 83.6639 126.98 81.819 122.943ZM81.0854 119.237L81.4438 119.215C81.3246 119.222 81.2051 119.229 81.0854 119.237Z" fill="#72A065"/>
<path opacity="0.204148" d="M97.4202 148.335C97.116 139.952 101.273 137.499 96.8787 128.552" stroke="black" stroke-width="4"/>
<path opacity="0.195638" d="M88.4985 118.846C88.5008 118.847 88.5031 118.849 88.5053 118.85C89.0734 119.25 89.813 119.844 90.3644 120.403C90.704 120.747 91.0239 121.112 91.3195 121.497C93.5116 124.352 92.8524 127.306 89.8453 127.648C86.0902 128.076 83.1234 126.796 81.4393 123.112C81.0331 122.223 80.6145 121.353 80.2071 120.537C80.0646 120.252 79.9337 119.994 79.8174 119.768C79.7767 119.689 79.7408 119.62 79.71 119.561C79.6917 119.526 79.6494 119.383 79.6431 119.371L80.0551 119.325C80.1679 119.312 80.4627 119.235 80.5115 119.307C80.6581 119.525 80.8101 119.887 80.9541 120.175C81.3654 120.998 81.7881 121.877 82.1985 122.775C83.7171 126.098 86.3253 127.223 89.7489 126.833C92.0171 126.575 92.5029 124.398 90.6556 121.992C90.3814 121.634 90.0841 121.296 89.7679 120.975C89.2531 120.454 88.7141 120.006 88.1845 119.633C87.9999 119.503 87.8302 119.391 87.6795 119.299C87.6006 119.251 87.2207 118.975 87.1186 118.905L88.4985 118.846V118.846Z" fill="black"/>
<path opacity="0.204148" d="M80.178 134.764L76.8488 141.238" stroke="black" stroke-width="4"/>
<path d="M101.715 43L97.5898 29.5586H97.4844C97.6328 32.293 97.707 34.1172 97.707 35.0312V43H94.4609V25.8672H99.4062L103.461 38.9688H103.531L107.832 25.8672H112.777V43H109.391V34.8906C109.391 34.5078 109.395 34.0664 109.402 33.5664C109.418 33.0664 109.473 31.7383 109.566 29.582H109.461L105.043 43H101.715ZM122.246 32.1953C121.488 32.1953 120.895 32.4375 120.465 32.9219C120.035 33.3984 119.789 34.0781 119.727 34.9609H124.742C124.727 34.0781 124.496 33.3984 124.051 32.9219C123.605 32.4375 123.004 32.1953 122.246 32.1953ZM122.75 43.2344C120.641 43.2344 118.992 42.6523 117.805 41.4883C116.617 40.3242 116.023 38.6758 116.023 36.543C116.023 34.3477 116.57 32.6523 117.664 31.457C118.766 30.2539 120.285 29.6523 122.223 29.6523C124.074 29.6523 125.516 30.1797 126.547 31.2344C127.578 32.2891 128.094 33.7461 128.094 35.6055V37.3398H119.645C119.684 38.3555 119.984 39.1484 120.547 39.7188C121.109 40.2891 121.898 40.5742 122.914 40.5742C123.703 40.5742 124.449 40.4922 125.152 40.3281C125.855 40.1641 126.59 39.9023 127.355 39.543V42.3086C126.73 42.6211 126.062 42.8516 125.352 43C124.641 43.1562 123.773 43.2344 122.75 43.2344ZM136.426 32.1953C135.668 32.1953 135.074 32.4375 134.645 32.9219C134.215 33.3984 133.969 34.0781 133.906 34.9609H138.922C138.906 34.0781 138.676 33.3984 138.23 32.9219C137.785 32.4375 137.184 32.1953 136.426 32.1953ZM136.93 43.2344C134.82 43.2344 133.172 42.6523 131.984 41.4883C130.797 40.3242 130.203 38.6758 130.203 36.543C130.203 34.3477 130.75 32.6523 131.844 31.457C132.945 30.2539 134.465 29.6523 136.402 29.6523C138.254 29.6523 139.695 30.1797 140.727 31.2344C141.758 32.2891 142.273 33.7461 142.273 35.6055V37.3398H133.824C133.863 38.3555 134.164 39.1484 134.727 39.7188C135.289 40.2891 136.078 40.5742 137.094 40.5742C137.883 40.5742 138.629 40.4922 139.332 40.3281C140.035 40.1641 140.77 39.9023 141.535 39.543V42.3086C140.91 42.6211 140.242 42.8516 139.531 43C138.82 43.1562 137.953 43.2344 136.93 43.2344ZM150.699 40.3867C151.324 40.3867 152.074 40.25 152.949 39.9766V42.6367C152.059 43.0352 150.965 43.2344 149.668 43.2344C148.238 43.2344 147.195 42.875 146.539 42.1562C145.891 41.4297 145.566 40.3438 145.566 38.8984V32.582H143.855V31.0703L145.824 29.875L146.855 27.1094H149.141V29.8984H152.809V32.582H149.141V38.8984C149.141 39.4062 149.281 39.7812 149.562 40.0234C149.852 40.2656 150.23 40.3867 150.699 40.3867ZM164.891 43L164.41 41.3242H164.223C163.84 41.9336 163.297 42.4062 162.594 42.7422C161.891 43.0703 161.09 43.2344 160.191 43.2344C158.652 43.2344 157.492 42.8242 156.711 42.0039C155.93 41.1758 155.539 39.9883 155.539 38.4414V29.8984H159.113V37.5508C159.113 38.4961 159.281 39.207 159.617 39.6836C159.953 40.1523 160.488 40.3867 161.223 40.3867C162.223 40.3867 162.945 40.0547 163.391 39.3906C163.836 38.7188 164.059 37.6094 164.059 36.0625V29.8984H167.633V43H164.891ZM178.578 43.2344C177.039 43.2344 175.832 42.6758 174.957 41.5586H174.77C174.895 42.6523 174.957 43.2852 174.957 43.457V48.7656H171.383V29.8984H174.289L174.793 31.5977H174.957C175.793 30.3008 177.031 29.6523 178.672 29.6523C180.219 29.6523 181.43 30.25 182.305 31.4453C183.18 32.6406 183.617 34.3008 183.617 36.4258C183.617 37.8242 183.41 39.0391 182.996 40.0703C182.59 41.1016 182.008 41.8867 181.25 42.4258C180.492 42.9648 179.602 43.2344 178.578 43.2344ZM177.523 32.5117C176.641 32.5117 175.996 32.7852 175.59 33.332C175.184 33.8711 174.973 34.7656 174.957 36.0156V36.4023C174.957 37.8086 175.164 38.8164 175.578 39.4258C176 40.0352 176.664 40.3398 177.57 40.3398C179.172 40.3398 179.973 39.0195 179.973 36.3789C179.973 35.0898 179.773 34.125 179.375 33.4844C178.984 32.8359 178.367 32.5117 177.523 32.5117Z" fill="black"/>
</svg>
