<svg width="280" height="269" viewBox="0 0 280 269" fill="none" xmlns="http://www.w3.org/2000/svg">
<rect width="280" height="269" rx="31" fill="#FFBD59"/>
<path d="M115.445 47L111.32 33.5586H111.215C111.363 36.293 111.438 38.1172 111.438 39.0312V47H108.191V29.8672H113.137L117.191 42.9688H117.262L121.562 29.8672H126.508V47H123.121V38.8906C123.121 38.5078 123.125 38.0664 123.133 37.5664C123.148 37.0664 123.203 35.7383 123.297 33.582H123.191L118.773 47H115.445ZM130.398 30.5117C130.398 29.3477 131.047 28.7656 132.344 28.7656C133.641 28.7656 134.289 29.3477 134.289 30.5117C134.289 31.0664 134.125 31.5 133.797 31.8125C133.477 32.1172 132.992 32.2695 132.344 32.2695C131.047 32.2695 130.398 31.6836 130.398 30.5117ZM134.125 47H130.551V33.8984H134.125V47ZM140.57 40.3086L136.352 33.8984H140.406L142.949 38.0703L145.516 33.8984H149.57L145.305 40.3086L149.77 47H145.703L142.949 42.5117L140.184 47H136.129L140.57 40.3086ZM157.188 36.1953C156.43 36.1953 155.836 36.4375 155.406 36.9219C154.977 37.3984 154.73 38.0781 154.668 38.9609H159.684C159.668 38.0781 159.438 37.3984 158.992 36.9219C158.547 36.4375 157.945 36.1953 157.188 36.1953ZM157.691 47.2344C155.582 47.2344 153.934 46.6523 152.746 45.4883C151.559 44.3242 150.965 42.6758 150.965 40.543C150.965 38.3477 151.512 36.6523 152.605 35.457C153.707 34.2539 155.227 33.6523 157.164 33.6523C159.016 33.6523 160.457 34.1797 161.488 35.2344C162.52 36.2891 163.035 37.7461 163.035 39.6055V41.3398H154.586C154.625 42.3555 154.926 43.1484 155.488 43.7188C156.051 44.2891 156.84 44.5742 157.855 44.5742C158.645 44.5742 159.391 44.4922 160.094 44.3281C160.797 44.1641 161.531 43.9023 162.297 43.543V46.3086C161.672 46.6211 161.004 46.8516 160.293 47C159.582 47.1562 158.715 47.2344 157.691 47.2344ZM173.254 33.6523C173.738 33.6523 174.141 33.6875 174.461 33.7578L174.191 37.1094C173.902 37.0312 173.551 36.9922 173.137 36.9922C171.996 36.9922 171.105 37.2852 170.465 37.8711C169.832 38.457 169.516 39.2773 169.516 40.332V47H165.941V33.8984H168.648L169.176 36.1016H169.352C169.758 35.3672 170.305 34.7773 170.992 34.332C171.688 33.8789 172.441 33.6523 173.254 33.6523Z" fill="black"/>
<path fill-rule="evenodd" clip-rule="evenodd" d="M141.613 78.0041C141.613 78.0041 135.02 87.9435 144.99 89.8043L141.613 78.0041Z" fill="#F5E27D"/>
<path d="M157.225 109.632L156.912 101.275C156.912 101.275 146.631 102.768 144.4 101.784C144.4 101.784 142.088 91.757 143.17 84.4669L151.144 76.2009L164.906 76.3061L167.287 88.6643C167.862 86.4914 174.209 83.3945 176.091 88.0583C178.518 94.0722 167.094 98.075 167.094 98.075L169.037 108.95" fill="#E8B894"/>
<path d="M171.174 75.4132L174.299 71.7563L172.349 70.081L169.495 73.4206L169.187 73.2969L169.684 68.8256L167.132 68.5398L166.734 72.123C160.377 68.7799 155.748 72.0217 155.748 72.0217C155.748 72.0217 153.256 63.9414 147.869 64.3225C140.194 64.8651 139.801 76.869 139.801 76.869C139.801 76.869 135.501 70.6402 133.363 71.7132C131.224 72.7864 132.592 94.3313 162.441 81.8073C162.441 81.8073 160.208 87.9221 167.287 88.6643C167.287 88.6643 168.339 86.0478 172.465 85.6301C172.465 85.6301 178.654 82.6058 171.174 75.4132Z" fill="#891404"/>
<path opacity="0.4" fill-rule="evenodd" clip-rule="evenodd" d="M156.912 101.275L163.613 99.3582L157.152 104.402L156.912 101.275Z" fill="black"/>
<path fill-rule="evenodd" clip-rule="evenodd" d="M150.342 89.1042L148.377 95.0344L151.194 94.8837L150.342 89.1042Z" fill="#125475"/>
<path fill-rule="evenodd" clip-rule="evenodd" d="M153.187 89.4788C153.099 90.2657 153.662 90.9759 154.444 91.0651C155.227 91.1546 155.933 90.5892 156.021 89.8023C156.11 89.0154 155.547 88.3051 154.764 88.216C153.981 88.1265 153.276 88.6918 153.187 89.4788" fill="#3D3E44"/>
<path fill-rule="evenodd" clip-rule="evenodd" d="M145.799 89.9689C145.711 90.7558 146.274 91.4661 147.056 91.5553C147.839 91.6447 148.545 91.0794 148.633 90.2925C148.722 89.5056 148.159 88.7953 147.376 88.7061C146.593 88.6167 145.887 89.182 145.799 89.9689" fill="#3D3E44"/>
<path fill-rule="evenodd" clip-rule="evenodd" d="M154.426 95.585C154.426 95.585 153.632 97.2962 151.676 97.3867Z" fill="white"/>
<path d="M154.426 95.585C154.426 95.585 153.632 97.2962 151.676 97.3867" stroke="#252535"/>
<path d="M139.905 127.206L144.731 129.785L145.926 150.014H179.234L179.793 129.604L190.325 121.677C190.325 121.677 185.358 111.651 176.86 107.661C174.646 106.623 171.861 106.072 169.078 105.808C163.498 105.28 157.935 105.894 157.031 106.004L156.904 106.019C156.746 106.067 156.588 106.114 156.435 106.162C156.433 106.162 156.43 106.164 156.428 106.164C155.977 106.305 155.551 106.44 155.145 106.573C149.507 108.43 147.724 109.934 144.566 114.385C141.563 118.616 139.905 127.206 139.905 127.206Z" fill="#B613C5"/>
<path opacity="0.200219" d="M179.793 129.604L177.122 131.424L170.7 123.917" stroke="black" stroke-width="5"/>
<path fill-rule="evenodd" clip-rule="evenodd" d="M153.513 144.107C153.513 144.107 152.461 144.375 152.441 145.036C152.441 145.224 158.85 146.438 158.85 146.438L157.455 146.52L156.005 146.45C156.005 146.45 155.251 146.59 155.208 147.217C155.193 147.465 156.528 147.731 158.081 147.934C160.495 148.252 162.231 147.971 163.929 147.508C164.072 147.468 164.21 147.433 164.342 147.397L162.962 138.517C162.499 138.941 161.623 139.693 157.85 140.635C157.094 140.823 154.555 140.858 154.555 140.858C153.808 140.966 152.24 141.111 152.132 141.991C152.105 142.209 152.378 142.445 152.378 142.445C152.378 142.445 151.394 142.512 151.334 143.405C151.308 143.756 153.513 144.107 153.513 144.107Z" fill="#18181C"/>
<path d="M152.801 147.733H162.134L164.467 133.734H150.468L152.801 147.733Z" fill="#B9E4F9"/>
<path fill-rule="evenodd" clip-rule="evenodd" d="M169.078 105.808C168.257 107.104 165.67 110.335 160.117 110.663C153.485 111.052 154.99 106.961 155.145 106.573C155.155 106.553 155.161 106.543 155.161 106.543C155.161 106.543 155.654 106.377 156.428 106.164C156.429 106.164 156.43 106.164 156.432 106.163C156.433 106.162 156.434 106.162 156.436 106.162C156.618 106.112 156.818 106.059 157.032 106.004C157.936 105.894 163.498 105.28 169.078 105.808ZM169.962 137.249L168.345 136.695C168.345 136.695 167.308 136.289 165.557 135.966C164.91 135.846 164.368 135.825 163.8 135.803C163.403 135.787 162.993 135.771 162.526 135.72L162.912 138.199C162.985 138.252 163.05 138.314 163.113 138.382C163.077 138.412 163.042 138.444 163.003 138.48L163.003 138.48L162.962 138.517C162.499 138.941 161.623 139.693 157.85 140.635C157.094 140.823 154.555 140.858 154.555 140.858C154.499 140.866 154.439 140.875 154.376 140.883C153.583 140.992 152.232 141.177 152.132 141.991C152.105 142.209 152.378 142.445 152.378 142.445C152.378 142.445 151.394 142.513 151.334 143.405C151.308 143.756 153.513 144.107 153.513 144.107C153.513 144.107 152.461 144.375 152.441 145.037C152.441 145.225 158.85 146.438 158.85 146.438L157.455 146.52L156.004 146.45C156.004 146.45 155.251 146.591 155.208 147.217C155.193 147.465 156.528 147.731 158.081 147.934C160.495 148.252 162.231 147.972 163.929 147.508C164.033 147.479 164.135 147.452 164.233 147.426L164.342 147.398C164.594 147.332 164.825 147.273 165.044 147.218L165.044 147.218C166.345 146.891 167.193 146.677 169.119 145.628C169.327 145.514 169.556 145.378 169.793 145.227C175.565 145.776 193.061 147.124 194.814 143.517C198.282 136.383 189.156 122.578 189.156 122.578L179.053 129.648L182.264 135.106L169.962 137.249ZM147.166 149.72L144.4 128.573L141.252 126.15L137.776 158.515C136.264 160.272 134.519 162.346 134.256 162.856C133.78 163.779 132.916 168.344 132.964 169.245C133.012 170.145 135.812 174.176 135.812 174.176C137.533 173.755 136.395 171.672 136.395 171.672C136.395 171.672 137.945 172.932 138.587 172.907C144.627 172.67 144.286 169.695 144.14 169.324C143.814 168.488 142.208 169.456 142.208 169.456C142.208 169.456 144.975 163.909 144.587 159.686C144.879 159.126 145.285 157.259 145.718 155.263C146.207 153.016 146.73 150.608 147.166 149.72Z" fill="#E8B894"/>
<path opacity="0.199382" d="M140.799 162.404C140.799 162.404 139.951 165.521 137.042 166.492C136.024 166.832 136.279 170.84 133.785 170.36" stroke="black" stroke-width="3"/>
<path fill-rule="evenodd" clip-rule="evenodd" d="M153.208 244.053L153.142 239.359L160.499 236.311L161.567 249.728H136.076C140.413 245.71 153.208 244.053 153.208 244.053ZM185.155 244.236L185.089 238.964L192.592 238.671L193.275 243.944L195.02 249.728H177.573C179.766 244.815 185.155 244.236 185.155 244.236Z" fill="#3D3E44"/>
<path fill-rule="evenodd" clip-rule="evenodd" d="M185.089 238.964L192.447 237.145L193.275 243.944L185.155 244.235L185.089 238.964ZM153.142 239.359L160.5 237.541L161.093 243.761L153.208 244.053L153.142 239.359Z" fill="#E8B894"/>
<path d="M164.672 171.876L181.938 242.068H195.177L179.342 149.318H148.023L149.113 241.71L153.176 241.758L160.911 241.852H160.939L162.911 241.875L164.672 171.876Z" fill="#757678"/>
<path opacity="0.200893" fill-rule="evenodd" clip-rule="evenodd" d="M164.625 171.356L161.647 160.497L163.888 193.419L164.625 171.356Z" fill="black"/>
<path d="M172.384 115.802C172.084 116.067 171.893 116.376 171.833 116.734C171.058 118.149 170.473 119.696 170.119 121.35C170.074 121.562 170.033 121.774 169.996 121.986L166.081 140.286L200.776 147.715L204.821 128.806L204.809 128.803C204.811 128.793 204.813 128.784 204.815 128.774C206.819 119.411 200.677 110.159 191.096 108.108C183.587 106.502 176.195 109.795 172.384 115.802Z" fill="#19141E"/>
<path fill-rule="evenodd" clip-rule="evenodd" d="M181.052 141.572C181.052 141.572 184.287 142.36 185.836 141.896L180.769 143.755L181.052 141.572Z" fill="#CF3E83"/>
<path d="M190.477 131.624C188.647 131.079 177.438 127.451 172.637 119.049L172.605 119.051C172.605 119.051 169.148 134.565 174.027 138.938C175.546 140.299 178.447 141.173 181.051 141.571L180.088 149.015L189.226 147.34C189.226 147.34 190.135 139.095 190.444 135.921C192.46 134.745 195.486 134.645 196.045 132.04C196.238 131.141 196.044 129.467 194.101 129.051C191.49 128.494 191.198 131.701 191.198 131.701C190.944 131.742 190.704 131.714 190.477 131.624V131.624Z" fill="#B28B67"/>
<path fill-rule="evenodd" clip-rule="evenodd" d="M176.42 128.556L173.596 132.681L175.767 133.097L176.42 128.556Z" fill="#2437A8"/>
<path fill-rule="evenodd" clip-rule="evenodd" d="M178.361 129.173C178.216 130.086 178.597 130.903 179.213 130.997C179.828 131.091 180.445 130.427 180.591 129.514C180.736 128.601 180.355 127.784 179.739 127.69C179.124 127.596 178.506 128.26 178.361 129.173" fill="#0D0B6D"/>
<path fill-rule="evenodd" clip-rule="evenodd" d="M172.68 127.815C172.535 128.728 172.916 129.545 173.532 129.639C174.147 129.733 174.765 129.069 174.91 128.156C175.055 127.243 174.674 126.427 174.059 126.333C173.443 126.238 172.826 126.902 172.68 127.815" fill="#0D0B6D"/>
<path d="M175.838 135.375C175.838 135.375 177.15 136.129 178.895 134.859" stroke="#1C295E"/>
<path opacity="0.395159" fill-rule="evenodd" clip-rule="evenodd" d="M181.057 141.573C181.057 141.573 184.293 142.361 185.841 141.897L180.774 143.756L181.057 141.573Z" fill="black"/>
<path fill-rule="evenodd" clip-rule="evenodd" d="M189.531 180.187L190.964 180.277C190.964 180.277 190.964 180.254 190.966 180.207C190.47 180.203 189.991 180.195 189.531 180.187Z" fill="#E4BDAD"/>
<path d="M159.169 193.408L163.848 194.364L172.377 183.077L172.96 179.151L184.567 179.876L189.521 180.186L189.531 180.187C189.991 180.195 190.47 180.204 190.966 180.207C197.232 180.255 205.961 179.713 206.813 176.411C208.357 170.43 201.135 158.032 200.279 156.593C200.226 156.504 200.198 156.456 200.198 156.456C198.986 154.408 197.731 152.791 196.513 151.887C194.144 150.13 191.836 149.606 189.618 149.441L189.356 145.098L180.209 145.644L180.426 149.254C177.748 149.303 175.9 149.681 174.088 151.101C168.269 155.658 166.428 174.268 166.428 174.268L159.169 193.408Z" fill="black"/>
<path fill-rule="evenodd" clip-rule="evenodd" d="M184.567 179.876L184.561 179.958C184.561 179.958 186.636 180.123 189.521 180.186L184.567 179.876Z" fill="#E4BDAD"/>
<path opacity="0.201149" d="M173.13 179.116C173.117 170.643 168.655 168.506 172.7 159.318" stroke="black" stroke-width="3"/>
<path d="M159.116 191.196C160.445 192.798 162.518 193.776 164.805 193.663C168.56 193.482 171.463 190.388 171.253 186.716C171.043 183.043 167.844 180.243 164.058 180.429C163.185 180.471 162.359 180.671 161.606 180.998L162.32 178.075L144.354 176.686C144.414 177.063 144.619 181.721 144.971 190.658C144.986 191.024 145.055 191.349 145.185 191.661C145.247 191.803 145.303 191.915 145.408 192.109C145.667 192.581 146.09 192.928 146.591 193.198C147.019 193.422 147.361 193.539 148.922 193.724C149.635 193.799 155.216 194.162 155.936 194.267C157.508 194.357 158.457 193.111 158.517 192.946C158.679 192.668 158.859 192.325 158.918 192.006L159.116 191.196ZM164.654 190.778C162.496 190.888 160.661 189.254 160.543 187.19C160.425 185.126 162.096 183.325 164.223 183.22C166.351 183.116 168.216 184.745 168.334 186.808C168.433 188.937 166.781 190.673 164.654 190.778Z" fill="#FFCB3D"/>
<path d="M153.29 177.981C148.329 177.597 144.328 177.017 144.354 176.686C144.38 176.354 148.422 176.396 153.383 176.78C158.344 177.164 162.345 177.744 162.32 178.075C162.294 178.407 158.252 178.365 153.29 177.981Z" fill="#474961"/>
<path fill-rule="evenodd" clip-rule="evenodd" d="M172.452 178.767C172.502 178.302 173.261 178.171 173.261 178.171C173.261 178.171 171.722 177.803 171.759 177.557C171.85 176.931 172.549 176.937 172.549 176.937C172.549 176.937 172.369 176.756 172.4 176.604C172.515 176.035 173.482 175.978 174.048 175.945C174.093 175.942 174.135 175.94 174.175 175.937C174.175 175.937 175.972 176.052 176.518 175.96C179.236 175.502 179.897 175.02 180.247 174.747C180.258 174.738 180.269 174.73 180.279 174.722C180.308 174.7 180.334 174.679 180.361 174.66C180.344 174.638 180.326 174.604 180.307 174.567C180.28 174.516 180.251 174.462 180.223 174.438L179.896 172.736C180.227 172.798 180.552 172.834 180.875 172.87C181.327 172.921 181.774 172.971 182.221 173.09C183.442 173.413 184.153 173.757 184.153 173.757L185.691 174.418L186.509 178.737C186.046 179.088 184.947 179.768 184.213 180.097C182.794 180.731 182.183 180.835 181.245 180.995C181.087 181.022 180.92 181.05 180.739 181.083C180.718 181.087 180.698 181.091 180.677 181.094C180.6 181.108 180.522 181.122 180.441 181.138C179.215 181.372 177.972 181.475 176.283 181.119C175.196 180.891 174.266 180.63 174.29 180.456C174.355 180.017 174.895 179.959 174.895 179.959L175.917 180.088L176.908 180.106C176.908 180.106 172.442 178.9 172.452 178.767ZM156.398 196.462C156.62 196.1 158.065 194.616 159.25 193.425L163.729 194.34C164.011 197.428 161.522 201.617 161.522 201.617C161.522 201.617 162.694 201.023 162.871 201.636C162.95 201.909 163.01 204.044 158.807 203.862C158.36 203.843 157.36 202.857 157.36 202.857C157.36 202.857 158.025 204.405 156.807 204.605C156.807 204.605 155.103 201.575 155.123 200.932C155.144 200.288 156.013 197.092 156.398 196.462Z" fill="#B28B67"/>
<path opacity="0.148065" d="M161.116 195.738C161.116 195.738 160.356 197.91 158.284 198.445C157.559 198.632 157.515 201.498 155.811 201.023" stroke="black" stroke-width="3"/>
<path opacity="0.200498" d="M192.558 162.534L196.363 170.08L185.185 173.523" stroke="black" stroke-width="3"/>
<path fill-rule="evenodd" clip-rule="evenodd" d="M209.463 196.439C218.299 196.439 225.463 203.603 225.463 212.439V231.063C225.463 239.899 218.299 247.063 209.463 247.063H181.326C172.49 247.063 165.326 239.899 165.326 231.063V212.439C165.326 203.603 172.49 196.439 181.326 196.439H209.463ZM210.008 207.87C212.217 207.87 214.008 209.661 214.008 211.87V231.632C214.008 233.841 212.217 235.632 210.008 235.632H180.781C178.572 235.632 176.781 233.841 176.781 231.632V211.87C176.781 209.661 178.572 207.87 180.781 207.87H210.008Z" fill="white"/>
<path fill-rule="evenodd" clip-rule="evenodd" d="M124.761 245.021C132.827 235.192 138.284 227.906 141.133 223.161C146.012 215.037 150.004 207.808 151.264 205.047C154.269 198.462 144.347 195.379 142.102 198.45C138.703 203.099 131.444 217.727 120.326 242.334L124.761 245.021Z" fill="#B28B67"/>
<path fill-rule="evenodd" clip-rule="evenodd" d="M141.289 242.164L156.3 204.456C159.51 197.582 144.006 193.064 141.647 196.263C136.29 203.526 123.558 232.175 121.962 234.339L141.289 242.164Z" fill="#2F3676"/>
<path fill-rule="evenodd" clip-rule="evenodd" d="M181.267 234.602C178.343 230.346 167.708 216.026 161.915 210.101C160.25 208.398 158.626 206.764 157.09 205.241C152.523 200.714 143.43 208.322 147.988 212.445C159.339 222.713 175.901 236.574 177.285 237.81C179.224 239.542 183.105 237.277 181.267 234.602Z" fill="#B28B67"/>
<path fill-rule="evenodd" clip-rule="evenodd" d="M178.57 233.851C179.348 232.978 180.685 232.727 181.533 233.535C181.959 233.942 182.353 234.367 182.549 234.706C183.103 235.663 183.845 237.682 183.845 237.682C182.733 238.322 163.863 249.195 163.863 249.195C163.863 249.195 161.597 247.074 163.157 245.902C164.716 244.73 165.731 243.925 165.731 243.925L172.271 234.933C172.602 234.478 173.244 234.386 173.691 234.729L174.641 235.46C174.641 235.46 176.614 235.288 177.585 234.729C177.895 234.55 178.242 234.219 178.57 233.851Z" fill="#E4E4E4"/>
<path fill-rule="evenodd" clip-rule="evenodd" d="M125.901 243.562C127.011 243.195 128.294 243.644 128.623 244.767C128.788 245.332 128.917 245.897 128.917 246.289C128.917 247.394 128.548 249.512 128.548 249.512C127.264 249.512 105.474 249.512 105.474 249.512C105.474 249.512 104.575 246.545 106.513 246.308C108.45 246.072 109.732 245.881 109.732 245.881L119.902 241.356C120.417 241.128 121.018 241.368 121.233 241.888L121.691 242.996C121.691 242.996 123.484 243.831 124.606 243.831C124.965 243.831 125.432 243.717 125.901 243.562Z" fill="#E4E4E4"/>
<path fill-rule="evenodd" clip-rule="evenodd" d="M161.7 206.34C161.7 206.34 180.414 203.297 186.77 202.179C198.848 200.053 202.37 193.567 200.287 179.416L178.035 179.416C173.617 180.689 141.121 195.162 141.121 195.162C137.223 197.093 137.949 202.787 138.661 204.662C138.705 204.777 158.374 238.372 158.374 238.372L176.578 226.799L161.666 207.703C161.666 207.703 161.075 206.516 161.7 206.34Z" fill="#5C63AB"/>
<path d="M118.318 90.0301C118.322 90.1645 118.323 90.2992 118.324 90.4344C118.324 90.5315 118.324 90.6262 118.322 90.7236L118.324 90.7236L118.329 93.8358L118.363 116.705L87.3732 116.751L87.3341 90.7694L87.3715 90.7694C87.3463 90.4139 87.3331 90.0552 87.3326 89.6934C87.3274 86.2049 88.4922 82.9858 90.4595 80.4022C86.874 79.4881 84.2216 76.2601 84.2158 72.4144C84.209 67.8531 87.9279 64.1497 92.5225 64.1429C97.1169 64.1361 100.847 67.8283 100.854 72.3897C100.855 73.0992 100.766 73.788 100.597 74.4454C101.318 74.3422 102.055 74.2883 102.804 74.2872C111.362 74.2744 118.31 81.1516 118.322 89.6476C118.323 89.7755 118.321 89.903 118.318 90.0301V90.0301Z" fill="#5A3917"/>
<path d="M102.701 89.6492C102.956 89.729 103.22 89.7972 103.491 89.853C103.71 89.8994 103.933 89.9365 104.162 89.9644C104.529 90.0131 104.908 90.036 105.292 90.0354C107.731 90.0318 109.859 89.0546 110.998 87.6043C111.058 87.8354 111.127 88.0628 111.204 88.2858C111.246 88.3993 111.288 88.5172 111.337 88.6305C111.642 89.3937 112.049 90.1011 112.54 90.7321C113.223 91.6101 114.071 92.3412 115.034 92.8747C114.601 95.9439 113.542 100.072 111.049 101.718C109.677 102.624 107.183 102.735 105.059 102.614L104.571 108.606C104.571 108.606 101.122 107.112 99.148 106.006C98.8071 105.816 98.512 105.637 98.2854 105.478C98.3228 105.125 98.4081 104.304 98.5161 103.278V103.274C98.7115 101.427 98.9776 98.9159 99.1521 97.261C97.9882 95.5091 94.8186 95.115 94.8145 92.6512C94.8145 91.9124 95.2488 90.6351 96.8534 90.6331C99.0066 90.6289 98.7011 93.1918 98.7011 93.1918C99.9208 93.6634 101.374 91.8287 102.701 89.6492Z" fill="#E4BDAD"/>
<path fill-rule="evenodd" clip-rule="evenodd" d="M110.901 93.9608L112.439 97.6627L110.655 97.6272L110.901 93.9608Z" fill="#405FD3"/>
<path fill-rule="evenodd" clip-rule="evenodd" d="M109.264 94.1213C109.226 94.8609 108.788 95.437 108.285 95.4083C107.783 95.3796 107.407 94.7569 107.446 94.0173C107.484 93.2777 107.922 92.7014 108.424 92.7303C108.926 92.759 109.302 93.3817 109.264 94.1213" fill="#0D0B6D"/>
<path fill-rule="evenodd" clip-rule="evenodd" d="M113.979 94.0032C113.941 94.7426 113.503 95.3189 113.001 95.2902C112.499 95.2615 112.123 94.6386 112.161 93.8992C112.199 93.1597 112.637 92.5833 113.139 92.612C113.642 92.6407 114.018 93.2637 113.979 94.0032" fill="#0D0B6D"/>
<path d="M110.217 99.4004C110.217 99.4004 109.055 99.773 107.89 98.4869" stroke="#1C295E" stroke-width="3"/>
<path opacity="0.401344" fill-rule="evenodd" clip-rule="evenodd" d="M105.058 102.613C105.058 102.613 102.37 102.692 101.225 102.071L104.915 104.371L105.058 102.613Z" fill="black"/>
<path fill-rule="evenodd" clip-rule="evenodd" d="M112.489 243.104L112.988 238.779L108.604 236.758L108.149 249.145L125.265 249.115C121.775 245.52 112.489 243.104 112.489 243.104ZM87.0062 237.598L82.1552 237.702L82.2043 243.207C82.2043 243.207 77.524 244.013 75.9023 249.145H88.0705L87.5432 242.962L87.0062 237.598Z" fill="#0D0B6D"/>
<path fill-rule="evenodd" clip-rule="evenodd" d="M87.5322 237.903L82.8002 236.253L82.1665 242.962L87.5055 243.207L87.5322 237.903ZM113.102 239.514L108.503 237.699L108.361 242.932L113.062 243.104L113.102 239.514Z" fill="#E4BDAD"/>
<path d="M81.113 238.801C81.3299 232.092 82.7308 189.716 84.1702 164.504C85.1676 147.029 92.6322 137.408 94.0331 135.746H111.819C111.851 135.969 114.245 152.794 114.683 187.999C115.077 219.527 114.671 236.76 114.621 238.787L114.621 238.788L115.189 238.787L115.192 241.501L105.982 241.516L105.979 238.801L106.296 238.801L106.296 238.801L101.619 183.629L100.218 167.117L89.5852 238.787L89.5851 238.787L90.045 238.786L89.8844 241.501L80.3491 241.516L80.5097 238.802L81.113 238.801L81.113 238.801Z" fill="#2F2F3D"/>
<path opacity="0.398065" fill-rule="evenodd" clip-rule="evenodd" d="M100.219 167.117L102.132 150.964L101.619 183.629L100.219 167.117Z" fill="#0A0A0F"/>
<path fill-rule="evenodd" clip-rule="evenodd" d="M95.2321 135.889L93.7959 135.868C93.7959 135.868 93.798 135.845 93.7998 135.798C94.2945 135.833 94.7728 135.862 95.2321 135.889Z" fill="#E4BDAD"/>
<path d="M124.496 151.34L119.755 151.93L112.119 140.073L111.84 136.132L100.208 135.961L95.2423 135.889H95.2319C94.7726 135.862 94.2944 135.833 93.7999 135.798C87.5459 135.364 78.8809 134.157 78.2865 130.814C77.2078 124.76 85.3677 113.011 86.3321 111.649C86.3924 111.564 86.4233 111.519 86.4233 111.519C87.791 109.579 89.1671 108.071 90.4516 107.268C92.9498 105.706 95.2922 105.363 97.5182 105.37L98.1145 101.08L107.195 102.324L106.701 105.89C109.367 106.143 111.182 106.661 112.88 108.209C118.332 113.178 118.733 131.788 118.733 131.788L124.496 151.34Z" fill="#9662FE"/>
<path fill-rule="evenodd" clip-rule="evenodd" d="M100.208 135.961V136.043C100.208 136.043 98.125 136.047 95.2422 135.889L100.208 135.961Z" fill="#E4BDAD"/>
<path opacity="0.201149" d="M111.673 136.084C112.34 127.677 116.955 125.899 113.63 116.471" stroke="black" stroke-width="3"/>
<g clip-path="url(#clip0)">
<path d="M124.699 149.374C123.25 150.868 121.108 151.683 118.836 151.395C115.106 150.925 112.451 147.615 112.944 143.97C113.436 140.325 116.842 137.78 120.602 138.257C121.469 138.367 122.278 138.629 123.003 139.014L122.516 136.045H140.536C140.447 136.417 139.883 141.044 138.843 149.928C138.8 150.292 138.706 150.61 138.552 150.911C138.479 151.048 138.415 151.155 138.296 151.341C138.001 151.791 137.553 152.105 137.032 152.336C136.588 152.525 136.238 152.616 134.668 152.68C133.951 152.7 128.358 152.631 127.633 152.68C126.058 152.649 125.208 151.334 125.161 151.164C125.021 150.875 124.867 150.519 124.834 150.197L124.699 149.374ZM119.21 148.529C121.353 148.805 123.308 147.318 123.585 145.269C123.861 143.22 122.335 141.296 120.222 141.028C118.109 140.759 116.124 142.239 115.847 144.288C115.584 146.403 117.097 148.261 119.21 148.529Z" fill="#FFCB3D"/>
<path d="M131.526 136.647C136.502 136.647 140.536 136.377 140.536 136.045C140.536 135.712 136.502 135.442 131.526 135.442C126.55 135.442 122.517 135.712 122.517 136.045C122.517 136.377 126.55 136.647 131.526 136.647Z" fill="#474961"/>
</g>
<path fill-rule="evenodd" clip-rule="evenodd" d="M112.377 135.791C112.362 135.325 111.616 135.136 111.616 135.136C111.616 135.136 113.18 134.889 113.162 134.642C113.119 134.014 112.421 133.967 112.421 133.967C112.421 133.967 112.615 133.801 112.595 133.647C112.524 133.074 111.565 132.944 111.003 132.867C110.958 132.861 110.916 132.856 110.877 132.85C110.877 132.85 109.075 132.825 108.538 132.693C105.862 132.03 105.24 131.5 104.912 131.202C104.902 131.193 104.892 131.184 104.882 131.176C104.855 131.151 104.83 131.128 104.805 131.107C104.823 131.087 104.844 131.054 104.866 131.019C104.897 130.971 104.93 130.919 104.96 130.897L105.417 129.234C105.082 129.27 104.755 129.281 104.431 129.292C103.976 129.307 103.526 129.323 103.071 129.406C101.829 129.634 101.093 129.92 101.093 129.92L99.508 130.458L98.3584 134.681C98.7936 135.066 99.8366 135.824 100.544 136.207C101.91 136.946 102.512 137.096 103.435 137.327C103.59 137.365 103.754 137.406 103.933 137.453C103.953 137.458 103.973 137.463 103.994 137.469C104.069 137.488 104.146 137.508 104.226 137.53C105.43 137.857 106.662 138.054 108.375 137.83C109.477 137.687 110.424 137.5 110.413 137.326C110.383 136.885 109.848 136.786 109.848 136.786L108.819 136.835L107.829 136.777C107.829 136.777 112.377 135.923 112.377 135.791ZM127.024 154.584C126.831 154.207 125.504 152.624 124.414 151.35L119.876 151.915C119.356 154.958 121.515 159.306 121.515 159.306C121.515 159.306 120.392 158.626 120.169 159.221C120.069 159.486 119.844 161.6 124.051 161.743C124.497 161.758 125.572 160.856 125.572 160.856C125.572 160.856 124.788 162.341 125.988 162.633C125.988 162.633 127.921 159.757 127.951 159.117C127.98 158.477 127.36 155.238 127.024 154.584Z" fill="#E4BDAD"/>
<path opacity="0.148065" d="M122.374 153.503C122.374 153.503 122.964 155.717 124.99 156.406C125.699 156.648 125.522 159.495 127.258 159.155" stroke="black" stroke-width="3"/>
<path opacity="0.200498" d="M93.5754 118.138L89.1982 125.333L100.082 129.609" stroke="black" stroke-width="3"/>
<defs>
<clipPath id="clip0">
<rect width="32" height="25" fill="white" transform="translate(110.4 127.912)"/>
</clipPath>
</defs>
</svg>
